<svg width="1000" height="290" viewBox="0 0 1000 290" fill="none" xmlns="http://www.w3.org/2000/svg">
<mask id="mask0_220_1168" style="mask-type:luminance" maskUnits="userSpaceOnUse" x="1" y="0" width="998" height="290">
<path d="M998.699 0.338257H1.30078V289.662H998.699V0.338257Z" fill="white"/>
</mask>
<g mask="url(#mask0_220_1168)">
<mask id="mask1_220_1168" style="mask-type:luminance" maskUnits="userSpaceOnUse" x="1" y="0" width="998" height="290">
<path d="M998.699 0.338257H1.30078V289.662H998.699V0.338257Z" fill="white"/>
</mask>
<g mask="url(#mask1_220_1168)">
<path d="M400.439 10.3122C400.439 4.80376 397.147 0.338257 393.086 0.338257C389.025 0.338257 385.732 4.80376 385.732 10.3122V279.688C385.732 285.196 389.025 289.662 393.086 289.662C397.147 289.662 400.439 285.196 400.439 279.688V10.3122Z" fill="white"/>
<mask id="mask2_220_1168" style="mask-type:luminance" maskUnits="userSpaceOnUse" x="438" y="1" width="561" height="288">
<path d="M998.699 1.05798H438.939V288.942H998.699V1.05798Z" fill="white"/>
</mask>
<g mask="url(#mask2_220_1168)">
<mask id="mask3_220_1168" style="mask-type:luminance" maskUnits="userSpaceOnUse" x="438" y="1" width="561" height="288">
<path d="M998.699 1.05798H438.939V288.942H998.699V1.05798Z" fill="white"/>
</mask>
<g mask="url(#mask3_220_1168)">
<mask id="mask4_220_1168" style="mask-type:luminance" maskUnits="userSpaceOnUse" x="438" y="1" width="561" height="164">
<path d="M998.699 1.05798H438.939V164.141H998.699V1.05798Z" fill="white"/>
</mask>
<g mask="url(#mask4_220_1168)">
<mask id="mask5_220_1168" style="mask-type:luminance" maskUnits="userSpaceOnUse" x="438" y="1" width="561" height="164">
<path d="M998.699 1.05798H438.939V164.141H998.699V1.05798Z" fill="white"/>
</mask>
<g mask="url(#mask5_220_1168)">
<path d="M524.939 161.867H440.1C439.341 161.867 438.962 161.488 438.962 160.729L439.19 135.937L494.916 29.4895H442.147C441.54 29.4895 441.237 29.1862 441.237 28.5797V4.69721C441.237 3.93904 441.54 3.55995 442.147 3.55995H524.484C525.243 3.55995 525.622 3.93904 525.622 4.69721V29.262L470.123 135.255H524.939C525.546 135.255 525.849 135.634 525.849 136.392L526.077 160.729C526.077 161.488 525.697 161.867 524.939 161.867ZM614.783 161.867H541.316C540.709 161.867 540.406 161.488 540.406 160.729L540.634 4.46977C540.634 3.86323 540.937 3.55995 541.543 3.55995H614.555C615.162 3.55995 615.465 3.93904 615.465 4.69721V30.1718C615.465 30.7784 615.162 31.0817 614.555 31.0817H567.928V66.5642H614.555C615.162 66.5642 615.465 66.8675 615.465 67.474L615.693 93.1761C615.693 93.7826 615.389 94.0859 614.783 94.0859H567.928V133.89H614.783C615.389 133.89 615.693 134.269 615.693 135.027V160.957C615.693 161.563 615.389 161.867 614.783 161.867ZM625.928 160.729L654.132 4.46977C654.284 3.86323 654.663 3.55995 655.269 3.55995H688.25C688.856 3.55995 689.236 3.86323 689.387 4.46977L716.454 160.729C716.606 161.488 716.302 161.867 715.544 161.867H690.297C689.69 161.867 689.311 161.488 689.16 160.729L686.658 144.125H655.724L653.222 160.729C653.071 161.488 652.692 161.867 652.085 161.867H626.838C626.231 161.867 625.928 161.488 625.928 160.729ZM670.509 55.8739L660.273 119.788H682.109L672.783 55.8739L671.418 47.4582L670.509 55.8739ZM805.115 161.867H731.648C731.041 161.867 730.738 161.488 730.738 160.729L730.965 4.69721C730.965 3.93904 731.345 3.55995 732.103 3.55995H757.35C758.108 3.55995 758.487 3.93904 758.487 4.69721L758.26 133.89H805.115C805.873 133.89 806.252 134.269 806.252 135.027V160.729C806.252 161.488 805.873 161.867 805.115 161.867ZM859.931 164.141C851.743 164.141 844.282 162.049 837.55 157.863C830.787 153.709 825.358 148.174 821.264 141.259C817.17 134.375 815.123 126.763 815.123 118.423L815.35 46.321C815.35 37.981 817.367 30.3993 821.4 23.5757C825.404 16.7522 830.817 11.2933 837.641 7.19918C844.464 3.10505 851.894 1.05798 859.931 1.05798C868.119 1.05798 875.549 3.10505 882.221 7.19918C888.893 11.2933 894.246 16.7522 898.279 23.5757C902.282 30.3993 904.284 37.981 904.284 46.321L904.511 118.423C904.511 126.763 902.51 134.375 898.507 141.259C894.473 148.174 889.09 153.709 882.358 157.863C875.595 162.049 868.119 164.141 859.931 164.141ZM859.931 136.619C864.48 136.619 868.468 134.754 871.895 131.024C875.291 127.324 876.99 123.124 876.99 118.423L876.762 46.321C876.762 41.317 875.17 37.0712 871.986 33.5836C868.801 30.096 864.783 28.3522 859.931 28.3522C855.23 28.3522 851.212 30.0505 847.876 33.4472C844.54 36.8741 842.872 41.1654 842.872 46.321V118.423C842.872 123.427 844.54 127.703 847.876 131.252C851.212 134.83 855.23 136.619 859.931 136.619ZM967.288 161.867H941.586C940.98 161.867 940.676 161.488 940.676 160.729V31.0817H911.108C910.349 31.0817 909.97 30.7026 909.97 29.9444L910.198 4.46977C910.198 3.86323 910.501 3.55995 911.108 3.55995H997.539C998.298 3.55995 998.677 3.86323 998.677 4.46977V29.9444C998.677 30.7026 998.373 31.0817 997.767 31.0817H967.971L968.198 160.729C968.198 161.488 967.895 161.867 967.288 161.867Z" fill="white"/>
</g>
</g>
<mask id="mask6_220_1168" style="mask-type:luminance" maskUnits="userSpaceOnUse" x="438" y="202" width="561" height="87">
<path d="M998.699 202.641H438.939V288.942H998.699V202.641Z" fill="white"/>
</mask>
<g mask="url(#mask6_220_1168)">
<mask id="mask7_220_1168" style="mask-type:luminance" maskUnits="userSpaceOnUse" x="438" y="202" width="561" height="87">
<path d="M998.699 202.641H438.939V288.942H998.699V202.641Z" fill="white"/>
</mask>
<g mask="url(#mask7_220_1168)">
<path d="M463.07 205.974L473.579 207.084V270.4H464.266L463.753 265.188C461.076 269.517 457.629 271.682 453.414 271.682C448.743 271.682 445.171 269.586 442.699 265.393C440.215 261.212 438.974 255.362 438.974 247.842C438.974 243.057 439.617 238.853 440.905 235.23C442.181 231.619 443.958 228.845 446.237 226.908C448.515 224.971 451.136 224.003 454.098 224.003C457.743 224.003 460.734 225.512 463.07 228.531V205.974ZM456.405 263.735C457.715 263.735 458.9 263.28 459.959 262.368C461.007 261.457 462.044 260.147 463.07 258.438V236.478C461.247 233.402 459.167 231.864 456.832 231.864C452.218 231.864 449.911 237.162 449.911 247.757C449.911 253.51 450.48 257.612 451.62 260.061C452.759 262.511 454.354 263.735 456.405 263.735ZM515.534 246.732C515.534 247.244 515.448 248.697 515.277 251.089H491.95C492.178 255.76 492.987 259.019 494.377 260.864C495.778 262.721 497.761 263.65 500.324 263.65C502.09 263.65 503.685 263.348 505.109 262.744C506.533 262.152 508.071 261.2 509.723 259.89L514.081 265.872C510.094 269.745 505.309 271.682 499.726 271.682C493.802 271.682 489.256 269.631 486.089 265.53C482.933 261.428 481.355 255.646 481.355 248.184C481.355 240.722 482.865 234.826 485.884 230.497C488.903 226.167 493.175 224.003 498.701 224.003C503.998 224.003 508.128 225.922 511.09 229.762C514.053 233.613 515.534 239.269 515.534 246.732ZM505.28 244.254V243.655C505.28 239.383 504.767 236.262 503.742 234.291C502.717 232.331 501.065 231.351 498.786 231.351C496.678 231.351 495.066 232.302 493.95 234.205C492.845 236.119 492.178 239.469 491.95 244.254H505.28ZM535.443 224.003C540.797 224.003 545.326 225.769 549.029 229.3L545.013 235.025C543.418 233.886 541.908 233.032 540.484 232.462C539.06 231.892 537.607 231.608 536.126 231.608C534.474 231.608 533.176 232.046 532.23 232.923C531.296 233.812 530.829 235.025 530.829 236.563C530.829 238.101 531.353 239.338 532.401 240.272C533.46 241.217 535.585 242.317 538.775 243.57C542.706 245.108 545.611 246.931 547.491 249.039C549.37 251.146 550.31 253.966 550.31 257.498C550.31 261.884 548.772 265.342 545.696 267.871C542.62 270.412 538.718 271.682 533.99 271.682C530.914 271.682 528.077 271.124 525.48 270.007C522.893 268.902 520.632 267.353 518.695 265.359L523.822 259.719C527.012 262.511 530.259 263.906 533.563 263.906C535.443 263.906 536.924 263.411 538.006 262.42C539.088 261.417 539.63 260.033 539.63 258.267C539.63 256.957 539.402 255.891 538.946 255.071C538.49 254.239 537.693 253.465 536.553 252.747C535.414 252.041 533.705 251.26 531.427 250.406C527.496 248.868 524.688 247.073 523.002 245.023C521.327 242.972 520.49 240.352 520.49 237.162C520.49 233.345 521.84 230.195 524.54 227.711C527.251 225.239 530.886 224.003 535.443 224.003ZM556.873 225.199H567.383V270.4H556.873V225.199ZM562.085 202.641C563.965 202.641 565.491 203.239 566.665 204.436C567.827 205.632 568.408 207.17 568.408 209.05C568.408 210.873 567.827 212.382 566.665 213.578C565.491 214.775 563.965 215.373 562.085 215.373C560.205 215.373 558.684 214.775 557.522 213.578C556.349 212.382 555.762 210.873 555.762 209.05C555.762 207.17 556.349 205.632 557.522 204.436C558.684 203.239 560.205 202.641 562.085 202.641ZM607.799 219.389L610.448 227.506C609.251 228.076 607.816 228.474 606.141 228.702C604.455 228.93 602.359 229.044 599.852 229.044C602.245 230.183 604.028 231.704 605.201 233.607C606.363 235.521 606.944 237.874 606.944 240.665C606.944 245.222 605.549 248.896 602.757 251.687C599.966 254.479 596.178 255.874 591.393 255.874C589.969 255.874 588.516 255.646 587.035 255.191C586.01 256.045 585.497 257.213 585.497 258.694C585.497 259.833 585.811 260.688 586.437 261.257C587.064 261.827 588.232 262.112 589.94 262.112H594.725C599.283 262.112 602.9 263.291 605.577 265.649C608.254 268.019 609.593 271.027 609.593 274.673C609.593 279.002 607.93 282.465 604.603 285.063C601.265 287.649 596.52 288.942 590.368 288.942C583.874 288.942 579.334 287.746 576.748 285.353C574.15 282.961 572.851 279.458 572.851 274.843H582.165C582.165 277.293 582.734 279.03 583.874 280.056C585.013 281.081 587.206 281.594 590.453 281.594C593.586 281.594 595.808 281.053 597.118 279.97C598.428 278.888 599.083 277.35 599.083 275.356C599.083 273.419 598.542 271.995 597.46 271.084C596.377 270.172 594.697 269.717 592.418 269.717H589.171C584.842 269.717 581.681 268.948 579.687 267.41C577.693 265.872 576.696 263.764 576.696 261.087C576.696 259.549 577.112 258.079 577.944 256.678C578.764 255.288 579.886 254.051 581.31 252.969C578.975 251.488 577.266 249.722 576.184 247.671C575.101 245.621 574.56 243.114 574.56 240.152C574.56 235.196 576.041 231.277 579.003 228.395C581.965 225.524 585.953 224.088 590.966 224.088C594.668 224.088 597.733 223.689 600.16 222.892C602.575 222.094 605.121 220.927 607.799 219.389ZM590.966 231.095C588.972 231.095 587.462 231.807 586.437 233.231C585.412 234.655 584.899 236.905 584.899 239.981C584.899 242.886 585.412 245.119 586.437 246.68C587.462 248.252 588.944 249.039 590.88 249.039C592.874 249.039 594.355 248.338 595.324 246.937C596.292 245.547 596.776 243.2 596.776 239.896C596.776 236.82 596.309 234.581 595.375 233.18C594.429 231.79 592.96 231.095 590.966 231.095ZM636.252 224.003C639.499 224.003 642.063 225.171 643.943 227.506C645.822 229.842 646.762 232.975 646.762 236.905V270.4H636.252V238.101C636.252 235.937 635.951 234.382 635.347 233.436C634.754 232.502 633.888 232.035 632.749 232.035C630.357 232.035 627.993 234.285 625.657 238.785V270.4H615.147V225.199H624.29L625.059 231.095C626.597 228.702 628.232 226.919 629.964 225.746C631.707 224.584 633.803 224.003 636.252 224.003ZM690.408 210.16C695.023 210.16 698.657 211.397 701.311 213.869C703.955 216.352 705.276 219.617 705.276 223.661C705.276 226.908 704.45 229.756 702.798 232.206C701.146 234.655 698.725 237.076 695.535 239.469L705.96 252.115C707.498 247.614 708.665 243.257 709.463 239.041L717.922 241.178C716.213 247.614 714.106 253.112 711.599 257.669L720.058 266.726L711.599 271.682L705.532 264.163C703.311 266.726 700.918 268.617 698.355 269.836C695.792 271.067 692.943 271.682 689.81 271.682C686.563 271.682 683.658 270.998 681.095 269.631C678.531 268.264 676.538 266.339 675.113 263.855C673.689 261.383 672.977 258.552 672.977 255.362C672.977 251.887 673.763 248.879 675.336 246.338C676.896 243.809 679.386 241.234 682.804 238.614C680.183 235.88 678.36 233.442 677.335 231.3C676.31 229.169 675.797 226.68 675.797 223.832C675.797 219.844 677.05 216.569 679.557 214.006C682.063 211.442 685.68 210.16 690.408 210.16ZM690.579 217.167C687.389 217.167 685.794 219.389 685.794 223.832C685.794 225.826 686.108 227.546 686.734 228.993C687.361 230.451 688.472 232.206 690.067 234.256C691.946 232.49 693.285 230.867 694.083 229.386C694.88 227.905 695.279 226.082 695.279 223.917C695.279 219.417 693.712 217.167 690.579 217.167ZM688.529 244.339C686.877 245.82 685.697 247.398 684.991 249.073C684.273 250.759 683.914 252.741 683.914 255.02C683.914 257.868 684.598 260.061 685.965 261.599C687.332 263.137 689.184 263.906 691.519 263.906C693.285 263.906 694.88 263.49 696.304 262.659C697.728 261.838 699.095 260.602 700.406 258.95L688.529 244.339ZM765.345 205.974L775.855 207.084V270.4H766.541L766.029 265.188C763.351 269.517 759.905 271.682 755.689 271.682C751.018 271.682 747.441 269.586 744.957 265.393C742.485 261.212 741.249 255.362 741.249 247.842C741.249 243.057 741.887 238.853 743.163 235.23C744.45 231.619 746.233 228.845 748.512 226.908C750.791 224.971 753.411 224.003 756.373 224.003C760.019 224.003 763.009 225.512 765.345 228.531V205.974ZM758.68 263.735C759.99 263.735 761.169 263.28 762.218 262.368C763.277 261.457 764.32 260.147 765.345 258.438V236.478C763.522 233.402 761.443 231.864 759.107 231.864C754.493 231.864 752.186 237.162 752.186 247.757C752.186 253.51 752.756 257.612 753.895 260.061C755.034 262.511 756.629 263.735 758.68 263.735ZM817.809 246.732C817.809 247.244 817.724 248.697 817.553 251.089H794.226C794.454 255.76 795.263 259.019 796.653 260.864C798.054 262.721 800.036 263.65 802.6 263.65C804.365 263.65 805.96 263.348 807.385 262.744C808.809 262.152 810.347 261.2 811.999 259.89L816.356 265.872C812.369 269.745 807.584 271.682 802.001 271.682C796.077 271.682 791.531 269.631 788.364 265.53C785.208 261.428 783.63 255.646 783.63 248.184C783.63 240.722 785.14 234.826 788.159 230.497C791.178 226.167 795.451 224.003 800.976 224.003C806.274 224.003 810.404 225.922 813.366 229.762C816.328 233.613 817.809 239.269 817.809 246.732ZM807.555 244.254V243.655C807.555 239.383 807.043 236.262 806.017 234.291C804.992 232.331 803.34 231.351 801.062 231.351C798.954 231.351 797.342 232.302 796.225 234.205C795.12 236.119 794.454 239.469 794.226 244.254H807.555ZM846.331 225.199H856.67L844.878 270.4H832.489L820.355 225.199H831.207L838.641 261.941L846.331 225.199ZM893.839 246.732C893.839 247.244 893.754 248.697 893.583 251.089H870.256C870.484 255.76 871.299 259.019 872.7 260.864C874.09 262.721 876.066 263.65 878.63 263.65C880.396 263.65 881.991 263.348 883.415 262.744C884.839 262.152 886.377 261.2 888.029 259.89L892.387 265.872C888.399 269.745 883.614 271.682 878.032 271.682C872.107 271.682 867.567 269.631 864.412 265.53C861.244 261.428 859.661 255.646 859.661 248.184C859.661 240.722 861.17 234.826 864.189 230.497C867.209 226.167 871.481 224.003 877.006 224.003C882.304 224.003 886.434 225.922 889.396 229.762C892.358 233.613 893.839 239.269 893.839 246.732ZM883.586 244.254V243.655C883.586 239.383 883.073 236.262 882.048 234.291C881.022 232.331 879.37 231.351 877.092 231.351C874.984 231.351 873.378 232.302 872.273 234.205C871.156 236.119 870.484 239.469 870.256 244.254H883.586ZM910.758 271.682C907.682 271.682 905.244 270.725 903.443 268.811C901.655 266.908 900.76 264.362 900.76 261.172V207.084L911.27 205.974V260.745C911.27 261.485 911.441 262.083 911.783 262.539C912.125 262.995 912.637 263.223 913.321 263.223C913.72 263.223 914.101 263.166 914.466 263.052C914.842 262.938 915.087 262.881 915.201 262.881L917.252 270.058C915.315 271.141 913.15 271.682 910.758 271.682ZM938.528 224.003C944.224 224.003 948.65 225.997 951.806 229.984C954.973 233.972 956.557 239.896 956.557 247.757C956.557 255.276 954.962 261.144 951.772 265.359C948.582 269.574 944.167 271.682 938.528 271.682C932.888 271.682 928.474 269.614 925.284 265.479C922.094 261.354 920.499 255.447 920.499 247.757C920.499 240.124 922.094 234.256 925.284 230.155C928.474 226.054 932.888 224.003 938.528 224.003ZM938.528 231.949C936.078 231.949 934.284 233.157 933.145 235.572C932.005 237.999 931.436 242.06 931.436 247.757C931.436 253.51 932.005 257.595 933.145 260.01C934.284 262.437 936.078 263.65 938.528 263.65C940.977 263.65 942.772 262.437 943.911 260.01C945.05 257.595 945.62 253.51 945.62 247.757C945.62 242.004 945.05 237.931 943.911 235.538C942.772 233.146 940.977 231.949 938.528 231.949ZM985.164 224.003C989.608 224.003 992.969 226.036 995.247 230.104C997.526 234.182 998.665 240.038 998.665 247.671C998.665 255.077 997.372 260.927 994.786 265.222C992.188 269.529 988.582 271.682 983.968 271.682C980.322 271.682 977.275 270.058 974.825 266.811V287.746L964.316 288.942V225.199H973.629L974.056 230.668C975.537 228.389 977.189 226.709 979.012 225.626C980.835 224.544 982.886 224.003 985.164 224.003ZM981.148 263.65C983.313 263.65 984.965 262.408 986.104 259.924C987.244 257.452 987.813 253.396 987.813 247.757C987.813 241.833 987.329 237.703 986.361 235.367C985.392 233.032 983.883 231.864 981.832 231.864C979.212 231.864 976.876 233.744 974.825 237.503V259.378C976.648 262.226 978.756 263.65 981.148 263.65Z" fill="#F5450E"/>
</g>
</g>
</g>
</g>
<mask id="mask8_220_1168" style="mask-type:luminance" maskUnits="userSpaceOnUse" x="1" y="67" width="347" height="156">
<path d="M347.233 67.6741H1.30078V222.326H347.233V67.6741Z" fill="white"/>
</mask>
<g mask="url(#mask8_220_1168)">
<mask id="mask9_220_1168" style="mask-type:luminance" maskUnits="userSpaceOnUse" x="1" y="67" width="347" height="156">
<path d="M347.233 67.6741H1.30078V222.326H347.233V67.6741Z" fill="white"/>
</mask>
<g mask="url(#mask9_220_1168)">
<path d="M288.862 204.386C281.73 194.671 272.734 186.913 262.942 179.995C257.735 176.329 252.113 173.297 247.102 169.324C241.766 165.101 236.349 160.98 230.855 156.966C215.952 146.017 200.57 135.753 185.471 125.078C179.173 120.62 176.337 114.084 175.914 106.506C175.734 103.224 177.29 101.971 180.698 102.286C183.773 102.574 186.816 103.051 189.764 103.989C195.044 105.676 200.427 106.782 205.999 106.817C208.728 106.832 211.329 106.183 213.574 104.715C218.767 101.35 223.236 96.9827 226.72 91.8684C226.801 91.7608 226.651 91.4957 226.558 91.096C222.889 91.096 219.169 91.1537 215.453 91.0653C214.142 91.0345 213.293 91.5187 212.421 92.4256C210.008 94.9427 206.983 96.4683 203.655 97.3598C196.904 99.1582 190.605 97.306 183.719 94.8274C189.764 94.2318 195.682 96.0417 200.808 90.9654C196.423 90.9654 192.742 90.827 189.068 91C185.421 91.1767 182.432 93.9935 178.57 93.6822C182.781 96.4567 186.824 99.189 190.498 102.559C188.48 102.313 186.609 101.468 184.687 101.36C181.794 101.191 180.084 99.458 178.362 97.5558C177.939 97.0754 177.57 96.5566 177.152 96.0763C173.501 91.9222 170.273 87.3877 165.969 83.8331C165.189 83.1914 164.536 82.1384 163.06 82.8609C166.945 87.6913 169.639 93.2019 172.755 98.4627L172.344 99.0084C168.567 98.7509 165.585 97.2791 163.195 94.6276C162.627 93.9943 162.107 93.3199 161.638 92.6101C159.993 90.1353 158.637 87.4223 156.827 85.1627C154.302 82.0001 151.981 78.7068 149.587 75.4635C148.772 74.3606 147.731 73.7727 146.513 73.3307C142.732 71.9512 138.927 70.6177 135.18 69.1536C130.004 67.1246 124.728 67.7126 119.448 68.4158C115.805 68.9 113.945 71.3671 114.345 75.4789C114.652 78.6569 114.902 81.8887 114.402 85.0398C113.884 88.3215 114.437 91.438 115.378 94.4662C117.104 100.027 119.068 105.514 120.993 111.017C123.172 117.242 125.523 123.46 129.27 128.882C137.037 140.123 145.91 150.494 156.324 159.363C168.548 169.785 181.121 179.792 193.445 190.102C200.623 196.112 207.756 202.211 213.743 209.474C216.413 212.705 218.785 216.079 218.262 220.672C219.276 220.748 220.114 220.86 220.956 220.868C227.769 220.967 234.586 221.06 241.399 221.133C244.462 221.167 244.631 220.914 244.232 217.851C244.062 216.564 243.582 215.399 243.029 214.246C241.968 212.025 240.527 210.062 238.99 208.144C233.533 201.358 226.651 196.112 219.918 190.748C205.204 179.012 190.279 167.545 175.518 155.866C169.931 151.455 164.109 147.293 159.163 142.121C154.014 136.733 149.214 131.042 144.476 125.282C140.764 120.774 138.22 115.848 136.525 110.233C134.812 104.554 135.565 99.3043 137.628 94.0742C139.016 90.5696 141.64 89.459 145.291 90.5542C148.337 91.4705 151.364 92.4468 154.371 93.4824C157.438 94.5469 160.458 95.7458 163.502 96.8833C162.587 97.306 161.765 97.3022 160.939 97.306C155.543 97.3406 154.471 98.259 152.811 103.389C151.981 105.952 152.558 108.204 153.599 110.445C154.452 112.281 155.417 114.057 156.427 115.798C160.789 123.306 165.984 130.243 172.809 135.6C194.974 152.996 218.227 168.94 240.619 186.036C247.048 190.947 253.5 195.82 259.08 201.723C264.349 207.295 269.41 213.024 269.763 221.721L292.951 221.724C295.913 221.724 296.063 221.548 295.579 218.65C294.684 213.274 292.009 208.69 288.862 204.386Z" fill="#F5450E"/>
<path d="M89.2318 200.958C85.8963 194.444 82.3071 188.062 79.0984 181.49C73.1305 169.251 68.1195 156.808 66.8475 142.939C65.6293 129.651 67.0857 116.87 70.7403 104.185C71.7586 100.653 73.0767 97.2253 74.4486 93.836C72.8 92.9598 71.8316 93.9397 70.771 94.6007C65.8099 97.7018 61.2754 101.445 56.3144 104.507C51.3267 107.554 47.1031 111.703 43.9674 116.635C42.046 119.629 39.3714 122.096 37.8689 125.382C39.1293 125.455 39.9094 124.663 40.678 123.914L40.9816 123.625L41.0085 123.602L41.3812 123.28C47.2338 118.672 52.5023 113.392 58.132 108.535C58.9467 107.831 59.6345 106.825 60.8297 106.732C61.4714 107.931 60.5568 108.281 60.0803 108.715C52.9596 115.14 46.7381 122.411 40.359 129.543C35.9667 134.458 31.5513 139.408 26.2944 143.412C22.4993 146.297 19.1664 149.744 16.4107 153.634C11.5841 160.393 6.527 166.995 1.50445 173.747C1.95022 173.828 2.21537 173.966 2.33834 173.882C3.0491 173.418 3.74255 172.928 4.4173 172.414C15.5038 164.152 24.8187 154.133 33.2614 143.262C37.2348 138.151 41.166 133.01 45.1164 127.883L45.6929 128.806C42.6724 133.659 39.6558 138.524 36.6315 143.374C28.0083 157.204 18.4973 170.346 7.19949 182.159C5.27534 184.142 3.30865 186.083 1.30078 187.981V205.819C2.43057 204.048 3.53345 202.261 4.90918 200.674C10.9155 193.764 16.4875 186.528 21.2834 178.724C30.1218 164.359 37.8881 149.403 45.4315 134.335C48.2253 128.748 51.2688 123.31 54.9156 118.226L55.5612 118.684C54.4929 120.882 53.3131 123.034 52.3832 125.282C47.1301 138.017 41.6579 150.66 37.2079 163.717C34.8024 170.852 32.0031 177.848 28.8229 184.672C27.9749 186.499 27.4025 188.442 27.1244 190.436C26.8785 192.12 26.6594 193.803 26.3905 195.482C25.007 204.082 21.9136 211.845 15.3539 217.897C15.2463 217.993 15.3193 218.293 15.2924 218.789C23.1779 218.789 31.0402 218.75 38.9065 218.827C40.2745 218.835 41.0507 218.181 41.827 217.255C45.0242 213.42 46.4307 208.936 46.6958 204.032C46.9956 198.591 46.4461 193.184 45.7812 187.796C44.9243 180.833 44.1135 174.008 45.9426 166.957C48.1177 158.545 48.6057 149.749 51.2111 141.402C54.0125 132.402 56.3566 123.233 60.211 114.587C61.9172 110.764 63.8078 107.024 66.3479 103.551C67.2164 104.976 66.2672 105.998 65.8637 107.001C62.2361 115.89 60.0611 125.182 58.3818 134.589C56.691 144.069 57.1559 153.692 56.9254 163.26C56.9062 163.89 57.0214 164.54 57.1752 165.151C58.3049 169.685 59.4117 174.22 60.6222 178.731C62.6896 186.409 65.6678 193.814 67.5315 201.55C68.9495 207.425 69.8718 213.313 65.6562 218.6C65.5947 218.681 65.7677 218.942 65.9022 219.323C73.2842 219.323 80.7354 219.315 88.1827 219.323C91.4184 219.323 91.9679 218.892 92.7595 215.818C93.1092 214.458 93.1822 213.117 92.9939 211.714C92.4752 207.867 90.9765 204.355 89.2318 200.958Z" fill="#F5450E"/>
<path d="M37.8267 125.435L37.8421 125.428C37.8498 125.412 37.8613 125.397 37.8652 125.378L37.7729 125.374C37.796 125.397 37.8075 125.42 37.8267 125.435Z" fill="#F5450E"/>
<path d="M37.765 125.804C37.8048 125.796 37.8411 125.776 37.8687 125.747C37.8841 125.727 37.8879 125.704 37.8918 125.685L37.9072 125.654C37.9072 125.624 37.9072 125.597 37.8918 125.562V125.554C37.8773 125.511 37.8551 125.471 37.8265 125.435L37.3999 125.662C37.5229 125.716 37.6651 125.839 37.765 125.804Z" fill="#F5450E"/>
<path d="M347.138 220.253C346.623 217.094 345.951 213.927 344.567 211.088C341.82 205.489 341.823 199.621 342.242 193.657C342.619 188.134 342.769 182.605 342.65 177.071C342.607 175.246 342.031 173.882 340.901 172.487C336.286 166.792 331.832 160.962 327.213 155.263C325.103 152.665 323.259 149.826 320.78 147.462C320.127 148.3 320.404 149.061 320.338 149.756C319.904 154.322 317.952 155.963 313.425 155.586C310.731 155.359 308.272 154.352 305.882 153.226C300.425 150.636 295.068 147.835 289.577 145.337C278.286 140.199 266.57 136.134 254.838 132.149C249.869 130.462 246.176 127.795 244.697 122.584C244.556 122.072 244.315 121.594 243.988 121.176C243.661 120.758 243.254 120.41 242.791 120.151C242.018 119.698 241.069 119.375 240.835 118.837L253.808 91.3612C249.604 91.3612 245.992 91.4649 242.391 91.3189C240.665 91.242 239.747 91.8031 238.917 93.3171C235.489 99.531 231.919 105.66 228.407 111.82C226.758 114.718 226.766 114.725 223.611 114.126C220.794 113.588 217.97 113.115 215.176 112.466C213.382 112.043 211.598 112.051 209.792 112.012C208.075 111.97 206.76 112.67 205.584 114.111C207.898 116.143 210.446 117.65 212.932 119.183C219.419 123.168 225.748 127.376 232.895 130.273C238.356 132.483 243.974 134.689 247.913 139.523C253.65 146.563 260.817 152.181 267.119 158.66C269.513 161.116 272.284 163.006 275.235 164.755C289.408 173.125 301.828 183.442 310.927 197.357C315.654 204.574 320.039 211.964 320.953 220.814C321.095 222.128 322.018 221.913 322.828 221.924C330.38 222.055 337.935 222.113 345.489 222.324C347.276 222.366 347.376 221.705 347.138 220.253Z" fill="#F5450E"/>
<path d="M191.477 212.867C189.967 210.284 188.119 207.952 186.109 205.746C178.635 197.542 170.192 190.371 161.83 183.112C150.567 173.347 139.273 163.637 129.781 152.035C123.844 144.772 118.253 137.352 114.56 128.621C110.713 119.544 107.362 110.268 103.662 101.133C103.062 99.654 102.835 98.0784 102.735 96.4683C102.48 92.6503 102.165 88.8364 101.79 85.0282C101.275 79.4446 102.343 74.0493 105.606 69.2727C105.879 68.8731 106.405 68.508 105.706 67.6741C103.5 69.0114 101.31 70.464 99.0079 71.7091C94.8577 73.9494 92.6596 77.4848 91.8142 81.9963C91.7035 82.624 91.6189 83.256 91.5606 83.8908C91.0687 89.5359 91.7489 95.1463 91.9333 100.772C92.0986 105.991 93.4512 110.806 95.3534 115.575C97.9857 122.169 100.403 128.852 103.139 135.407C105.675 141.475 108.546 147.393 112.335 152.827C119.609 163.264 128.163 172.575 137.202 181.471C144.641 188.78 152.35 195.828 159.313 203.621C161.872 206.476 164.343 209.42 166.088 212.848C167.198 215.007 168.201 217.275 166.757 220.545L189.633 220.549C193.283 220.549 194.052 219.553 192.961 216.026C192.588 214.92 192.09 213.86 191.477 212.867Z" fill="#F5450E"/>
<path d="M138.462 206.68C133.132 199.071 126.557 192.511 120.497 185.521C112.835 176.671 105.283 167.733 99.5077 157.48C94.612 148.765 90.8806 139.519 87.7257 130.066C86.1463 125.351 84.3594 120.67 83.6792 115.698C82.3611 106.11 83.464 96.5911 84.3556 87.0533C84.4977 85.4931 85.835 84.3019 85.5853 82.6725C84.9473 82.6264 84.6361 82.9031 84.3018 83.1644C80.14 86.5307 77.842 90.9846 76.8736 96.1416C76.1858 99.7962 75.7169 103.493 75.0906 107.159C73.98 113.6 73.5919 120.102 74.5833 126.546C76.5186 139.153 80.3795 151.388 86.031 162.822C91.6377 174.239 99.012 184.484 106.367 194.763C109.637 199.34 113.088 203.805 115.532 208.913C117.131 212.24 118.057 215.661 115.974 219.934C124.24 219.934 131.899 219.941 139.554 219.93C142.132 219.926 142.628 219.4 142.712 216.798C142.762 215.272 142.39 213.835 141.802 212.456C140.886 210.423 139.767 208.488 138.462 206.68Z" fill="#F5450E"/>
<path d="M258.127 123.983C261.097 125.501 263.922 124.82 266.593 123.272C269.521 121.573 272.541 119.909 273.548 116.239C275.339 109.707 277.141 103.174 279.028 96.6642C279.37 95.4922 279.17 94.6967 278.49 93.7514C277.356 92.1682 276.1 91.2305 273.986 91.5149C272.401 91.712 270.798 91.7107 269.213 91.511C267.323 91.2997 266.443 91.9606 265.778 93.8052C263.242 100.876 260.471 107.866 257.854 114.902C256.874 117.531 255.652 119.955 253.185 121.938C254.849 123.103 256.621 123.218 258.127 123.983Z" fill="#F5450E"/>
<path d="M272.707 127.322C271.404 127.272 270.121 127.138 268.314 127.645C275.143 129.782 281.257 132.368 287.502 134.6C290.295 135.6 293.17 136.372 296.217 136.245C300.394 136.072 302.681 134.201 303.549 130.104C303.703 129.374 303.703 128.613 303.903 127.899C304.206 126.769 303.949 125.862 303.219 124.951C299.018 119.744 294.872 114.499 290.461 108.957C289.819 110.033 289.777 110.879 289.627 111.705C289.066 114.841 288.574 117.992 287.452 120.989C285.945 124.993 282.982 127.084 278.767 127.334C276.757 127.461 274.724 127.411 272.707 127.322Z" fill="#F5450E"/>
<path d="M60.0381 95.1348C63.2891 93.786 65.687 92.1259 68.2578 90.6541C63.9846 88.9709 62.1939 91.7531 60.0381 95.1348Z" fill="#F5450E"/>
</g>
</g>
</g>
</g>
</svg>
