<svg width="347" height="156" viewBox="0 0 347 156" fill="none" xmlns="http://www.w3.org/2000/svg">
<path d="M287.862 137.386C280.73 127.671 271.734 119.913 261.942 112.996C256.735 109.329 251.113 106.298 246.102 102.324C240.766 98.1007 235.349 93.9805 229.855 89.9656C214.952 79.0174 199.57 68.7533 184.471 58.078C178.173 53.6204 175.337 47.0837 174.914 39.5057C174.734 36.224 176.29 34.9712 179.698 35.2863C182.773 35.5745 185.816 36.0511 188.764 36.9887C194.044 38.6757 199.427 39.7824 204.999 39.817C207.728 39.8324 210.329 39.1829 212.574 37.715C217.767 34.3502 222.236 29.9828 225.72 24.8685C225.801 24.7609 225.651 24.4957 225.558 24.0961C221.889 24.0961 218.169 24.1537 214.453 24.0654C213.142 24.0346 212.293 24.5188 211.421 25.4257C209.008 27.9427 205.983 29.4683 202.655 30.3599C195.904 32.1583 189.605 30.3061 182.719 27.8275C188.764 27.2318 194.682 29.0418 199.808 23.9654C195.423 23.9654 191.742 23.8271 188.068 24C184.421 24.1768 181.432 26.9936 177.57 26.6823C181.781 29.4568 185.824 32.189 189.498 35.5592C187.48 35.3132 185.609 34.4678 183.687 34.3602C180.794 34.1911 179.084 32.458 177.362 30.5558C176.939 30.0755 176.57 29.5567 176.152 29.0764C172.501 24.9223 169.273 20.3878 164.969 16.8332C164.189 16.1914 163.536 15.1385 162.06 15.861C165.945 20.6914 168.639 26.2019 171.755 31.4627L171.344 32.0084C167.567 31.751 164.585 30.2792 162.195 27.6276C161.627 26.9943 161.107 26.32 160.638 25.6101C158.993 23.1354 157.637 20.4224 155.827 18.1628C153.302 15.0002 150.981 11.7069 148.587 8.46356C147.772 7.36068 146.731 6.77273 145.513 6.3308C141.732 4.95124 137.927 3.61778 134.18 2.15367C129.004 0.124668 123.728 0.712627 118.448 1.41586C114.805 1.90005 112.945 4.36712 113.345 8.47892C113.652 11.6569 113.902 14.8887 113.402 18.0398C112.884 21.3216 113.437 24.4381 114.378 27.4662C116.104 33.0268 118.068 38.5143 119.993 44.0172C122.172 50.2425 124.523 56.4602 128.27 61.8824C136.037 73.1226 144.91 83.4943 155.324 92.3635C167.548 102.785 180.121 112.792 192.445 123.102C199.623 129.112 206.756 135.211 212.743 142.474C215.413 145.705 217.785 149.079 217.262 153.672C218.276 153.748 219.114 153.86 219.956 153.868C226.769 153.968 233.586 154.06 240.399 154.133C243.462 154.167 243.631 153.914 243.232 150.851C243.062 149.564 242.582 148.399 242.029 147.246C240.968 145.025 239.527 143.062 237.99 141.144C232.533 134.358 225.651 129.112 218.918 123.748C204.204 112.012 189.279 100.545 174.518 88.8666C168.931 84.455 163.109 80.2933 158.163 75.1208C153.014 69.7332 148.214 64.042 143.476 58.2817C139.764 53.7741 137.22 48.8476 135.525 43.2333C133.812 37.5536 134.565 32.3043 136.628 27.0743C138.016 23.5696 140.64 22.459 144.291 23.5542C147.337 24.4706 150.364 25.4468 153.371 26.4825C156.438 27.5469 159.458 28.7459 162.502 29.8834C161.587 30.3061 160.765 30.3022 159.939 30.3061C154.543 30.3406 153.471 31.2591 151.811 36.3892C150.981 38.9524 151.558 41.2043 152.599 43.4446C153.452 45.2815 154.417 47.0568 155.427 48.7976C159.789 56.3065 164.984 63.2427 171.809 68.5996C193.974 85.996 217.227 101.94 239.619 119.036C246.048 123.948 252.5 128.82 258.08 134.723C263.349 140.295 268.41 146.024 268.763 154.721L291.951 154.725C294.913 154.725 295.063 154.548 294.579 151.65C293.684 146.274 291.009 141.69 287.862 137.386Z" fill="#F5450E"/>
<path d="M88.2318 133.958C84.8963 127.444 81.3071 121.062 78.0984 114.49C72.1305 102.251 67.1195 89.808 65.8475 75.9393C64.6293 62.6509 66.0857 49.8697 69.7403 37.1846C70.7586 33.6531 72.0767 30.2253 73.4486 26.836C71.8 25.9598 70.8316 26.9397 69.771 27.6007C64.8099 30.7018 60.2754 34.4447 55.3144 37.5074C50.3267 40.5543 46.1031 44.703 42.9674 49.6353C41.046 52.6289 38.3714 55.096 36.8689 58.3816C38.1293 58.4546 38.9094 57.6629 39.678 56.9136L39.9816 56.6254L40.0085 56.6023L40.3812 56.2796C46.2338 51.672 51.5023 46.392 57.132 41.5347C57.9467 40.8315 58.6345 39.8247 59.8297 39.7324C60.4714 40.9314 59.5568 41.2811 59.0803 41.7153C51.9596 48.1405 45.7381 55.4111 39.359 62.5433C34.9667 67.4583 30.5513 72.4078 25.2944 76.412C21.4993 79.297 18.1664 82.7439 15.4107 86.6339C10.5841 93.3934 5.527 99.9953 0.50445 106.747C0.950215 106.828 1.21537 106.966 1.33834 106.882C2.0491 106.418 2.74255 105.928 3.4173 105.414C14.5038 97.1516 23.8187 87.1334 32.2614 76.2621C36.2348 71.1512 40.166 66.0095 44.1164 60.8832L44.6929 61.8055C41.6724 66.659 38.6558 71.524 35.6315 76.3736C27.0083 90.2038 17.4973 103.346 6.19949 115.159C4.27534 117.142 2.30865 119.083 0.300781 120.981V138.819C1.43057 137.048 2.53345 135.261 3.90918 133.674C9.91548 126.764 15.4875 119.528 20.2834 111.724C29.1218 97.3591 36.8881 82.4029 44.4315 67.3353C47.2253 61.7479 50.2688 56.3103 53.9156 51.2263L54.5612 51.6835C53.4929 53.8816 52.3131 56.0336 51.3832 58.2817C46.1301 71.0167 40.6579 83.6595 36.2079 96.7174C33.8024 103.852 31.0031 110.848 27.8229 117.672C26.9749 119.499 26.4025 121.442 26.1244 123.436C25.8785 125.12 25.6594 126.803 25.3905 128.482C24.007 137.082 20.9136 144.845 14.3539 150.897C14.2463 150.993 14.3193 151.293 14.2924 151.789C22.1779 151.789 30.0402 151.75 37.9065 151.827C39.2745 151.835 40.0507 151.181 40.827 150.255C44.0242 146.42 45.4307 141.936 45.6958 137.032C45.9956 131.591 45.4461 126.184 44.7812 120.796C43.9243 113.833 43.1135 107.008 44.9426 99.9569C47.1177 91.545 47.6057 82.7488 50.2111 74.4022C53.0125 65.4024 55.3566 56.2334 59.211 47.5871C60.9172 43.7635 62.8078 40.0245 65.3479 36.5506C66.2164 37.9763 65.2672 38.9985 64.8637 40.0014C61.2361 48.8898 59.0611 58.1817 57.3818 67.5889C55.691 77.0691 56.1559 86.6915 55.9254 96.2601C55.9062 96.8903 56.0214 97.5397 56.1752 98.1507C57.3049 102.685 58.4117 107.22 59.6222 111.731C61.6896 119.409 64.6678 126.814 66.5315 134.55C67.9495 140.425 68.8718 146.313 64.6562 151.6C64.5947 151.681 64.7677 151.942 64.9022 152.323C72.2842 152.323 79.7354 152.315 87.1827 152.323C90.4184 152.323 90.9679 151.892 91.7595 148.818C92.1092 147.458 92.1822 146.117 91.9939 144.714C91.4752 140.867 89.9765 137.355 88.2318 133.958Z" fill="#F5450E"/>
<path d="M36.8267 58.4354L36.8421 58.4277C36.8498 58.4123 36.8613 58.397 36.8652 58.3777L36.7729 58.3739C36.796 58.397 36.8075 58.42 36.8267 58.4354Z" fill="#F5450E"/>
<path d="M36.7655 58.8043C36.8053 58.7966 36.8416 58.7764 36.8692 58.7467C36.8846 58.7275 36.8884 58.7044 36.8923 58.6852L36.9076 58.6545C36.9076 58.6237 36.9076 58.5968 36.8923 58.5622V58.5546C36.8777 58.5113 36.8556 58.4709 36.8269 58.4354L36.4004 58.6622C36.5234 58.716 36.6655 58.8389 36.7655 58.8043Z" fill="#F5450E"/>
<path d="M346.138 153.253C345.623 150.094 344.951 146.928 343.567 144.088C340.82 138.489 340.823 132.621 341.242 126.657C341.619 121.135 341.769 115.605 341.65 110.071C341.607 108.246 341.031 106.882 339.901 105.487C335.286 99.7917 330.832 93.9622 326.213 88.2633C324.103 85.6655 322.259 82.8257 319.78 80.4624C319.127 81.3001 319.404 82.061 319.338 82.7565C318.904 87.3218 316.952 88.9627 312.425 88.5861C309.731 88.3593 307.272 87.3525 304.882 86.2266C299.425 83.6365 294.068 80.8351 288.577 78.3373C277.286 73.1995 265.57 69.1338 253.838 65.1488C248.869 63.4618 245.176 60.7949 243.697 55.5841C243.556 55.0724 243.315 54.5938 242.988 54.1761C242.661 53.7585 242.254 53.4102 241.791 53.1516C241.018 52.6981 240.069 52.3753 239.835 51.8373L252.808 24.3613C248.604 24.3613 244.992 24.465 241.391 24.319C239.665 24.2422 238.747 24.8032 237.917 26.3173C234.489 32.5311 230.919 38.6604 227.407 44.8204C225.758 47.7178 225.766 47.7255 222.611 47.1261C219.794 46.5881 216.97 46.1154 214.176 45.466C212.382 45.0432 210.598 45.0509 208.792 45.0125C207.075 44.9702 205.76 45.6696 204.584 47.1107C206.898 49.1435 209.446 50.6499 211.932 52.1832C218.419 56.1682 224.748 60.3761 231.895 63.2735C237.356 65.4831 242.974 67.6889 246.913 72.5231C252.65 79.5632 259.817 85.1814 266.119 91.6603C268.513 94.1159 271.284 96.0065 274.235 97.755C288.408 106.125 300.828 116.443 309.927 130.357C314.654 137.574 319.039 144.964 319.953 153.814C320.095 155.128 321.018 154.913 321.828 154.924C329.38 155.055 336.935 155.113 344.489 155.324C346.276 155.366 346.376 154.705 346.138 153.253Z" fill="#F5450E"/>
<path d="M190.477 145.867C188.967 143.284 187.119 140.952 185.109 138.746C177.635 130.542 169.192 123.371 160.83 116.112C149.567 106.347 138.273 96.6367 128.781 85.0353C122.844 77.7724 117.253 70.3519 113.56 61.6211C109.713 52.5444 106.362 43.2678 102.662 34.1335C102.062 32.654 101.835 31.0785 101.735 29.4683C101.48 25.6503 101.165 21.8365 100.79 18.0283C100.275 12.4447 101.343 7.04941 104.606 2.2728C104.879 1.87315 105.405 1.50808 104.706 0.674194C102.5 2.01149 100.31 3.46407 98.0079 4.70914C93.8577 6.94949 91.6596 10.4849 90.8142 14.9963C90.7035 15.6241 90.6189 16.2561 90.5606 16.8908C90.0687 22.5359 90.7489 28.1464 90.9333 33.7723C91.0986 38.9908 92.4512 43.8058 94.3534 48.5748C96.9857 55.169 99.4029 61.8516 102.139 68.4075C104.675 74.4753 107.546 80.3932 111.335 85.8269C118.609 96.264 127.163 105.575 136.202 114.471C143.641 121.78 151.35 128.828 158.313 136.621C160.872 139.476 163.343 142.42 165.088 145.848C166.198 148.007 167.201 150.275 165.757 153.545L188.633 153.549C192.283 153.549 193.052 152.553 191.961 149.026C191.588 147.92 191.09 146.86 190.477 145.867Z" fill="#F5450E"/>
<path d="M137.462 139.68C132.132 132.071 125.557 125.512 119.497 118.521C111.835 109.672 104.283 100.733 98.5077 90.4805C93.612 81.7651 89.8806 72.5193 86.7257 63.066C85.1463 58.3509 83.3594 53.6703 82.6792 48.6977C81.3611 39.1099 82.464 29.5913 83.3556 20.0535C83.4977 18.4933 84.835 17.302 84.5853 15.6727C83.9473 15.6266 83.6361 15.9032 83.3018 16.1645C79.14 19.5308 76.842 23.9847 75.8736 29.1417C75.1858 32.7962 74.7169 36.493 74.0906 40.159C72.98 46.5996 72.5919 53.1016 73.5833 59.546C75.5186 72.153 79.3795 84.3878 85.031 95.822C90.6377 107.239 98.012 117.484 105.367 127.763C108.637 132.34 112.088 136.806 114.532 141.913C116.131 145.241 117.057 148.661 114.974 152.934C123.24 152.934 130.899 152.942 138.554 152.93C141.132 152.926 141.628 152.4 141.712 149.798C141.762 148.272 141.39 146.835 140.802 145.456C139.886 143.423 138.767 141.488 137.462 139.68Z" fill="#F5450E"/>
<path d="M257.127 56.9828C260.097 58.5007 262.922 57.8205 265.593 56.2719C268.521 54.5734 271.541 52.9094 272.548 49.2395C274.339 42.7068 276.141 36.174 278.028 29.6643C278.37 28.4922 278.17 27.6968 277.49 26.7514C276.356 25.1682 275.1 24.2306 272.986 24.5149C271.401 24.712 269.798 24.7107 268.213 24.5111C266.323 24.2997 265.443 24.9607 264.778 26.8052C262.242 33.876 259.471 40.8661 256.854 47.9023C255.874 50.5307 254.652 52.9555 252.185 54.9384C253.849 56.1028 255.621 56.2181 257.127 56.9828Z" fill="#F5450E"/>
<path d="M271.707 60.3223C270.404 60.2723 269.121 60.1378 267.314 60.6451C274.143 62.7817 280.257 65.3679 286.502 67.6006C289.295 68.5997 292.17 69.3721 295.217 69.2453C299.394 69.0724 301.681 67.2009 302.549 63.1045C302.703 62.3743 302.703 61.6135 302.903 60.8987C303.206 59.7689 302.949 58.862 302.219 57.9513C298.018 52.7443 293.872 47.4988 289.461 41.9575C288.819 43.0335 288.777 43.8789 288.627 44.7051C288.066 47.8409 287.574 50.992 286.452 53.9893C284.945 57.9935 281.982 60.084 277.767 60.3338C275.757 60.4606 273.724 60.4107 271.707 60.3223Z" fill="#F5450E"/>
<path d="M59.0381 28.1349C62.2891 26.7861 64.687 25.126 67.2578 23.6542C62.9846 21.9711 61.1939 24.7532 59.0381 28.1349Z" fill="#F5450E"/>
</svg>
