<svg width="49" height="48" viewBox="0 0 49 48" fill="none" xmlns="http://www.w3.org/2000/svg">
<rect x="0.5" y="0.000488281" width="48" height="48" rx="24" fill="white"/>
<path fill-rule="evenodd" clip-rule="evenodd" d="M28.0585 18.6704H34.8378V16.7281H28.0585V18.6704ZM29.6645 22.9083C29.2325 23.3479 28.9601 23.9433 28.8487 24.6947H34.1213C34.0656 23.8928 33.7917 23.287 33.307 22.8697C32.8163 22.4554 32.2128 22.249 31.4903 22.249C30.7076 22.249 30.0965 22.4688 29.6645 22.9083ZM34.2402 20.3008C35.0575 20.6602 35.7304 21.2304 36.2602 22.0085C36.7433 22.6945 37.0534 23.4904 37.1949 24.3947C37.2777 24.9234 37.3108 25.6896 37.2972 26.686H28.7734C28.8246 27.8427 29.228 28.655 29.9986 29.1197C30.4653 29.4093 31.0267 29.5548 31.686 29.5548C32.3798 29.5548 32.9473 29.3781 33.3823 29.0262C33.6216 28.8346 33.8323 28.5703 34.013 28.2318H37.1362C37.0534 28.9148 36.6741 29.6113 36.0028 30.3181C34.9552 31.4392 33.4876 32.0005 31.6017 32.0005C30.0438 32.0005 28.6696 31.5283 27.482 30.5809C26.2884 29.635 25.6953 28.0937 25.6953 25.9613C25.6953 23.9611 26.2327 22.4272 27.3059 21.3596C28.3821 20.2949 29.7744 19.7588 31.4888 19.7588C32.5078 19.7588 33.4244 19.94 34.2402 20.3008ZM14.8535 24.7363V28.8985H18.6948C19.3811 28.8985 19.917 28.8064 20.2978 28.6238C20.9917 28.2822 21.3379 27.6348 21.3379 26.6756C21.3379 25.8618 21.0037 25.305 20.3309 25.0006C19.9546 24.8313 19.4263 24.7422 18.7489 24.7363H14.8535ZM14.8535 18.7105V22.154H18.7008C19.3856 22.154 19.9441 22.0248 20.3745 21.7664C20.802 21.5081 21.0173 21.0507 21.0173 20.3973C21.0173 19.6682 20.7343 19.1886 20.1683 18.954C19.6776 18.7921 19.0545 18.7105 18.2974 18.7105H14.8535ZM23.4451 17.6636C23.9283 18.3274 24.1706 19.1203 24.1706 20.0454C24.1706 20.9972 23.9283 21.7649 23.4391 22.3441C23.1651 22.6678 22.7633 22.9648 22.2319 23.232C23.0387 23.5231 23.6468 23.9819 24.0607 24.6101C24.4701 25.2367 24.6763 25.9999 24.6763 26.8968C24.6763 27.8219 24.4415 28.652 23.9704 29.3855C23.6724 29.8711 23.2991 30.281 22.8506 30.6136C22.3463 30.9952 21.7518 31.2551 21.0639 31.3976C20.376 31.5387 19.6325 31.607 18.8287 31.607H11.7002V16.0005H19.345C21.2746 16.0287 22.6398 16.5826 23.4451 17.6636Z" fill="#0863FF"/>
</svg>
