<svg width="28" height="28" viewBox="0 0 28 28" fill="none" xmlns="http://www.w3.org/2000/svg">
<rect width="28" height="28" rx="14" fill="white"/>
<path d="M16.1429 8H11.8571C9.71429 8 8 9.77778 8 12V19.5556C8 19.7333 8.08571 19.8667 8.25714 19.9556C8.3 20 8.38571 20 8.42857 20C8.51429 20 8.64286 19.9556 8.72857 19.9111C10.2286 18.5333 12.1571 17.7778 14.1286 17.7778H16.1429C18.2857 17.7778 20 16 20 13.7778V12C20 9.77778 18.2857 8 16.1429 8ZM12.5857 13.2C12.5429 13.2444 12.5 13.2889 12.4571 13.2889C12.4143 13.3333 12.3286 13.3333 12.2857 13.3333C12.1571 13.3333 12.0714 13.2889 11.9857 13.2C11.9 13.1111 11.8571 13.0222 11.8571 12.8889C11.8571 12.8444 11.8571 12.7556 11.9 12.7111C11.9429 12.6667 11.9429 12.6222 11.9857 12.5778C12.1143 12.4444 12.2857 12.4 12.4571 12.4889C12.5 12.5333 12.5429 12.5333 12.5857 12.5778C12.6286 12.6222 12.6714 12.6667 12.6714 12.7111C12.7143 12.7556 12.7143 12.8444 12.7143 12.8889C12.7143 13.0222 12.6714 13.1111 12.5857 13.2ZM14.3 13.2C14.2571 13.2 14.2571 13.2444 14.2571 13.2444C14.2143 13.2444 14.2143 13.2889 14.1714 13.2889C14.1286 13.2889 14.1286 13.2889 14.0857 13.3333C14.0429 13.3333 14.0429 13.3333 14 13.3333C13.8714 13.3333 13.7857 13.2889 13.7 13.2C13.6143 13.1111 13.5714 13.0222 13.5714 12.8889C13.5714 12.7556 13.6143 12.6667 13.7 12.5778C13.7429 12.5333 13.7857 12.4889 13.8286 12.4889C14 12.4 14.1714 12.4444 14.3 12.5778C14.3857 12.6667 14.4286 12.7556 14.4286 12.8889C14.4286 13.0222 14.3857 13.1111 14.3 13.2ZM16.1 13.0667C16.0571 13.1111 16.0571 13.1556 16.0143 13.2C15.9714 13.2444 15.9286 13.2889 15.8857 13.2889C15.8429 13.3333 15.7571 13.3333 15.7143 13.3333C15.6714 13.3333 15.5857 13.3333 15.5429 13.2889C15.5 13.2444 15.4571 13.2444 15.4143 13.2C15.3714 13.1556 15.3286 13.1111 15.3286 13.0667C15.3286 13.0222 15.2857 12.9333 15.2857 12.8889C15.2857 12.8444 15.2857 12.7556 15.3286 12.7111C15.3714 12.6667 15.3714 12.6222 15.4143 12.5778C15.4571 12.5333 15.5 12.4889 15.5429 12.4889C15.6286 12.4444 15.7571 12.4444 15.8857 12.4889C15.9286 12.5333 15.9714 12.5333 16.0143 12.5778C16.0571 12.6222 16.1 12.6667 16.1 12.7111C16.1 12.7556 16.1429 12.8444 16.1429 12.8889C16.1429 12.9333 16.1429 13.0222 16.1 13.0667Z" fill="#F5450E"/>
</svg>
