<svg width="28" height="28" viewBox="0 0 28 28" fill="none" xmlns="http://www.w3.org/2000/svg">
<rect width="28" height="28" rx="14" fill="#F5450E"/>
<path d="M19.4 15.92C19.2409 15.92 19.0883 15.9833 18.9757 16.0958C18.8632 16.2083 18.8 16.3609 18.8 16.52V18.38C18.7994 18.4912 18.7549 18.5977 18.6763 18.6763C18.5977 18.755 18.4912 18.7994 18.38 18.8H9.62C9.5088 18.7994 9.40234 18.755 9.32371 18.6763C9.24508 18.5977 9.20063 18.4912 9.2 18.38V16.52C9.2 16.3609 9.13679 16.2083 9.02426 16.0958C8.91174 15.9833 8.75913 15.92 8.6 15.92C8.44087 15.92 8.28826 15.9833 8.17574 16.0958C8.06321 16.2083 8 16.3609 8 16.52V18.38C8 18.8097 8.17068 19.2217 8.47449 19.5256C8.7783 19.8294 9.19035 20 9.62 20H18.38C18.8097 20 19.2217 19.8294 19.5255 19.5256C19.8293 19.2217 20 18.8097 20 18.38V16.52C20 16.3609 19.9368 16.2083 19.8243 16.0958C19.7117 15.9833 19.5591 15.92 19.4 15.92Z" fill="white"/>
<path d="M13.5464 17.168L13.5656 17.2304L13.5968 17.2856C13.6038 17.3021 13.6119 17.3181 13.6208 17.3336C13.6647 17.3991 13.721 17.4553 13.7864 17.4992L13.8344 17.5232L13.8896 17.5544L13.952 17.5736L14 17.6C14.0793 17.615 14.1607 17.615 14.24 17.6L14.2904 17.5856L14.3528 17.5664L14.408 17.5352L14.456 17.5112C14.488 17.4885 14.5185 17.4636 14.5472 17.4368L16.7528 15.2312C16.8655 15.1185 16.9288 14.9657 16.9288 14.8064C16.9288 14.6471 16.8655 14.4943 16.7528 14.3816C16.6402 14.2689 16.4874 14.2056 16.328 14.2056C16.1687 14.2056 16.0159 14.2689 15.9032 14.3816L14.72 15.5504V8.6C14.72 8.44087 14.6568 8.28826 14.5443 8.17574C14.4318 8.06321 14.2791 8 14.12 8C13.9609 8 13.8083 8.06321 13.6958 8.17574C13.5832 8.28826 13.52 8.44087 13.52 8.6V17C13.5205 17.0395 13.5245 17.0788 13.532 17.1176C13.5357 17.1347 13.5405 17.1515 13.5464 17.168Z" fill="white"/>
<path d="M11.8167 14.3282C11.5824 14.0939 11.2025 14.0939 10.9682 14.3282C10.7339 14.5625 10.7339 14.9424 10.9682 15.1767L12.0153 16.2238C12.2496 16.4581 12.6295 16.4581 12.8638 16.2238C13.0981 15.9895 13.0981 15.6096 12.8638 15.3753L11.8167 14.3282Z" fill="#F5A70E"/>
</svg>
