<svg width="49" height="48" viewBox="0 0 49 48" fill="none" xmlns="http://www.w3.org/2000/svg">
<rect x="0.5" y="0.000488281" width="48" height="48" rx="24" fill="white"/>
<path d="M24.5 31.4468C28.6421 31.4468 32 28.0889 32 23.9468C32 19.8046 28.6421 16.4468 24.5 16.4468C20.3579 16.4468 17 19.8046 17 23.9468C17 28.0889 20.3579 31.4468 24.5 31.4468Z" fill="#EC407A"/>
<path d="M24.5 16.0005C20.089 16.0005 16.5 19.5895 16.5 24.0005C16.5 28.4115 20.089 32.0005 24.5 32.0005C28.911 32.0005 32.5 28.4115 32.5 24.0005C32.5 19.5895 28.911 16.0005 24.5 16.0005ZM31.497 24.0605C29.803 23.6135 28.066 23.5615 26.411 23.9025C26.185 23.3385 25.941 22.7835 25.679 22.2355C27.176 21.5355 28.56 20.5865 29.774 19.4135C30.845 20.6425 31.5 22.2445 31.5 24.0005C31.5 24.0205 31.497 24.0395 31.497 24.0605ZM29.067 18.7075C27.933 19.8025 26.643 20.6945 25.245 21.3465C24.498 19.9165 23.624 18.5505 22.635 17.2605C23.23 17.0955 23.853 17.0005 24.5 17.0005C26.245 17.0005 27.84 17.6465 29.067 18.7075ZM21.647 17.6145C22.662 18.9065 23.553 20.2825 24.312 21.7235C22.212 22.5255 19.932 22.8335 17.649 22.5665C18.112 20.3505 19.628 18.5205 21.647 17.6145ZM17.5 24.0005C17.5 23.8505 17.513 23.7035 17.523 23.5565C18.115 23.6265 18.707 23.6725 19.297 23.6725C21.179 23.6725 23.028 23.3045 24.761 22.6295C25.001 23.1295 25.227 23.6365 25.436 24.1505C22.978 24.8885 20.788 26.4625 19.314 28.6855C18.191 27.4435 17.5 25.8025 17.5 24.0005ZM20.045 29.3955C21.401 27.2635 23.469 25.7605 25.796 25.0805C26.428 26.8205 26.883 28.6275 27.148 30.4765C26.331 30.8125 25.437 31.0005 24.5 31.0005C22.809 31.0005 21.256 30.3975 20.045 29.3955ZM28.086 30.0005C27.811 28.2385 27.375 26.5135 26.778 24.8485C28.289 24.5645 29.87 24.6315 31.41 25.0665C31.087 27.1625 29.836 28.9505 28.086 30.0005Z" fill="#C2185B"/>
</svg>
