<svg width="49" height="48" viewBox="0 0 49 48" fill="none" xmlns="http://www.w3.org/2000/svg">
<rect x="0.5" y="0.000488281" width="48" height="48" rx="24" fill="white"/>
<path d="M20.078 21.0005H16.5V32.0005H20.078V21.0005Z" fill="#1976D2"/>
<path d="M29.824 21.1295C29.786 21.1175 29.75 21.1045 29.71 21.0935C29.662 21.0825 29.614 21.0735 29.565 21.0655C29.375 21.0275 29.167 21.0005 28.923 21.0005C26.837 21.0005 25.514 22.5175 25.078 23.1035V21.0005H21.5V32.0005H25.078V26.0005C25.078 26.0005 27.782 22.2345 28.923 25.0005C28.923 27.4695 28.923 32.0005 28.923 32.0005H32.5V24.5775C32.5 22.9155 31.361 21.5305 29.824 21.1295Z" fill="#1976D2"/>
<path d="M18.25 19.5005C19.2165 19.5005 20 18.717 20 17.7505C20 16.784 19.2165 16.0005 18.25 16.0005C17.2835 16.0005 16.5 16.784 16.5 17.7505C16.5 18.717 17.2835 19.5005 18.25 19.5005Z" fill="#1976D2"/>
</svg>
