<svg width="24" height="24" viewBox="0 0 24 24" fill="none" xmlns="http://www.w3.org/2000/svg">
<path fill-rule="evenodd" clip-rule="evenodd" d="M12 0C7.02429 0 3 3.85824 3 8.62866C3 13.7689 8.68286 20.8567 11.0229 23.5562C11.5371 24.1479 12.4757 24.1479 12.99 23.5562C15.3171 20.8567 21 13.7689 21 8.62866C21 3.85824 16.9757 0 12 0ZM12 11.7103C10.2257 11.7103 8.78571 10.3297 8.78571 8.62866C8.78571 6.92758 10.2257 5.54699 12 5.54699C13.7743 5.54699 15.2143 6.92758 15.2143 8.62866C15.2143 10.3297 13.7743 11.7103 12 11.7103Z" fill="#F5450E"/>
</svg>
