<svg width="24" height="24" viewBox="0 0 24 24" fill="none" xmlns="http://www.w3.org/2000/svg">
<path fill-rule="evenodd" clip-rule="evenodd" d="M21.6486 16.3664L18.2551 15.9789C17.4401 15.8854 16.6385 16.166 16.064 16.7405L13.6057 19.1987C9.82473 17.2749 6.72514 14.1886 4.80125 10.3943L7.27291 7.92265C7.8474 7.34816 8.12797 6.54655 8.03445 5.73157L7.647 2.36477C7.48667 1.01538 6.35105 0 4.9883 0H2.67697C1.16725 0 -0.0886142 1.25587 0.00490787 2.76558C0.713004 14.1753 9.83809 23.287 21.2344 23.9951C22.7441 24.0886 24 22.8327 24 21.323V19.0117C24.0134 17.6623 22.998 16.5267 21.6486 16.3664Z" fill="#F5450E"/>
</svg>
