<svg width="28" height="28" viewBox="0 0 28 28" fill="none" xmlns="http://www.w3.org/2000/svg">
<rect width="28" height="28" rx="14" fill="#F5450E"/>
<path d="M10.2181 8.01353C10.028 8.07453 9.88714 8.20357 9.83081 8.36311C9.80499 8.44054 9.7956 8.56723 9.7956 8.83V9.18897H9.16655C8.45301 9.18897 8.36851 9.20305 8.20421 9.34382C8.14787 9.39075 8.0798 9.47286 8.05164 9.52683L8 9.62302V13.9987V18.3743L8.05164 18.4705C8.0798 18.5245 8.14787 18.6066 8.20421 18.6535C8.38963 18.8131 8.3333 18.8084 10.3871 18.8084C11.4034 18.8084 12.2367 18.8014 12.2367 18.792C12.2367 18.7826 12.1897 18.6864 12.1334 18.5761C11.9081 18.1397 11.7625 17.701 11.6569 17.1543C11.6076 16.8962 11.5912 16.1783 11.6241 15.8733C11.8729 13.6913 13.6027 11.927 15.7762 11.6408C16.1166 11.5962 16.6987 11.5962 17.0085 11.6408C17.8418 11.7628 18.5647 12.0678 19.344 12.6285L19.3956 12.666V11.1692C19.3956 9.48929 19.4027 9.57375 19.2219 9.39309C19.0553 9.22651 18.9825 9.20305 18.5694 9.19367L18.1985 9.18428V8.82766C18.1985 8.42177 18.1727 8.30446 18.053 8.18245C17.9216 8.04872 17.8113 8.00414 17.6 8.00414C17.3911 8.00414 17.2761 8.04872 17.1634 8.17307C17.0273 8.31619 17.0132 8.3725 17.0062 8.79481L16.9968 9.18897H13.9971H10.9974L10.988 8.79481C10.9809 8.46869 10.9739 8.38892 10.9363 8.32088C10.8284 8.11676 10.6641 8.01353 10.4293 8.0018C10.3448 7.9971 10.251 8.0018 10.2181 8.01353Z" fill="white"/>
<path d="M15.8867 12.8373C14.4337 13.0602 13.2672 14.1183 12.9081 15.5354C12.7461 16.176 12.7719 16.8986 12.9785 17.518C13.34 18.5949 14.1779 19.4442 15.2435 19.8079C15.9876 20.0613 16.7692 20.0636 17.5226 19.8173C19.4192 19.1932 20.4519 17.1285 19.8088 15.2445C19.6328 14.7307 19.3699 14.306 18.9756 13.8955C18.4662 13.3699 17.8466 13.0297 17.1072 12.8725C16.8021 12.8068 16.1918 12.7904 15.8867 12.8373ZM16.6847 14.0644C16.7927 14.1183 16.8842 14.2098 16.9452 14.3272C16.9851 14.3999 16.9898 14.4797 16.9969 15.1061L17.0039 15.8006L17.4076 15.81C17.8489 15.817 17.8888 15.8287 18.032 15.9718C18.14 16.0798 18.1799 16.1736 18.1939 16.3472C18.2127 16.6217 18.1094 16.8165 17.8841 16.9385C17.7902 16.9877 17.7644 16.9901 17.0016 16.9901C16.2387 16.9901 16.2129 16.9877 16.119 16.9385C15.9852 16.8657 15.882 16.7531 15.8397 16.6311C15.7857 16.4716 15.7857 14.5289 15.8397 14.3694C15.896 14.2098 16.0369 14.0808 16.227 14.0198C16.3279 13.987 16.5838 14.0104 16.6847 14.0644Z" fill="white"/>
</svg>
