<svg width="24" height="24" viewBox="0 0 24 24" fill="none" xmlns="http://www.w3.org/2000/svg">
<rect width="24" height="24" rx="12" fill="white"/>
<path d="M16.3737 13.0914C15.6379 13.0914 14.9484 12.6521 14.3219 11.9369L14.4744 10.9273L14.4811 10.8899C14.617 9.81478 15.0479 8.01052 16.3737 8.01052C17.3681 8.01052 18.1769 9.15104 18.1769 10.5533C18.1736 11.9509 17.3648 13.0914 16.3737 13.0914ZM16.3737 5.435C14.6799 5.435 13.3673 6.98685 12.8337 9.539C12.0182 7.8142 11.4017 5.7435 11.0404 4H9.21733V10.6889C9.21733 12.007 8.45496 13.0821 7.52022 13.0821C6.58547 13.0821 5.8231 12.007 5.8231 10.6889V4H4.00002V10.6889C3.99339 13.428 5.5745 15.6763 7.5169 15.6763C9.45931 15.6763 11.0404 13.428 11.0404 10.6889V9.56705C11.3951 10.6094 11.8293 11.6611 12.3563 12.596L11.2393 20H13.1055L13.9142 14.6293C14.6236 15.2696 15.439 15.6716 16.3737 15.6716C18.3725 15.6716 20 13.3625 20 10.544C20 7.73006 18.3725 5.435 16.3737 5.435Z" fill="#F5450E"/>
</svg>
